<?xml version="1.0" encoding="UTF-8"?>
<!-- Generated by Pixelmator Pro 3.7 -->
<svg width="920" height="430" viewBox="0 0 920 430" xmlns="http://www.w3.org/2000/svg">
    <g id="3669468linkicicon">
        <path id="Left-Shape" fill="#339ec1" stroke="#2b95b7" stroke-width="25.873884" d="M 111.198349 215.037598 C 111.198349 150.500793 173.7715 98.040924 250.75 98.040924 L 384 99 L 384 26 L 250.75 26.333282 C 126.50399 26.333282 25.666664 110.872864 25.666664 215.037598 C 25.666664 319.202362 126.50399 403.741852 250.75 403.741852 L 384 404 L 384 333 L 250.75 332.034241 C 173.7715 332.034241 111.198349 279.574463 111.198349 215.037598 Z M 520.850037 332.034241"/>
        <path id="Right-Shape" fill="#339ec1" stroke="#2b95b7" stroke-width="25.873884" d="M 808.318359 215.037598 C 808.318359 150.500793 745.745239 98.040924 668.766724 98.040924 L 535.516724 99 L 535.516724 26 L 668.766724 26.333282 C 793.012695 26.333282 893.850037 110.872864 893.850037 215.037598 C 893.850037 319.202362 793.012695 403.741852 668.766724 403.741852 L 535.516724 404 L 535.516724 333 L 668.766724 332.034241 C 745.745239 332.034241 808.318359 279.574463 808.318359 215.037598 Z M 398.666656 332.034241"/>
        <path id="Rounded-Rectangle" fill="#339ec1" fill-rule="evenodd" stroke="#2b95b7" stroke-width="25.873884" d="M 265.055756 230.095032 C 265.055756 240.019119 265.055756 244.981171 267.139343 248.701691 C 268.611908 251.331161 270.782928 253.502182 273.412384 254.974747 C 277.132935 257.05835 282.094971 257.05835 292.019073 257.05835 L 628.036682 257.05835 C 637.960754 257.05835 642.922791 257.05835 646.643311 254.974747 C 649.272766 253.502182 651.443787 251.331161 652.916382 248.701691 C 654.999939 244.981171 654.999939 240.019135 654.999939 230.095032 L 655 199.980164 C 655 190.056076 655 185.094025 652.916382 181.373505 C 651.443848 178.744049 649.272827 176.573029 646.643372 175.100464 C 642.922852 173.016876 637.960815 173.016876 628.036682 173.016876 L 292.019073 173.016846 C 282.094971 173.016846 277.132935 173.016846 273.412384 175.100449 C 270.782928 176.573013 268.611908 178.744049 267.139343 181.373505 C 265.055756 185.094025 265.055756 190.056076 265.055756 199.980164 Z"/>
    </g>
</svg>
